# Blender v2.91.2 OBJ File: 'casaRunescape.blend'
# www.blender.org
mtllib casaRunescape.mtl
o Chao_Cube
v 10.000000 0.500000 -10.000000
v 10.000000 -0.500000 -10.000000
v 10.000000 0.500000 10.000000
v 10.000000 -0.500000 10.000000
v -10.000000 0.500000 -10.000000
v -10.000000 -0.500000 -10.000000
v -10.000000 0.500000 10.000000
v -10.000000 -0.500000 10.000000
vt 0.625000 0.500000
vt 0.875000 0.500000
vt 0.875000 0.750000
vt 0.625000 0.750000
vt 0.375000 0.750000
vt 0.625000 1.000000
vt 0.375000 1.000000
vt 0.375000 0.000000
vt 0.625000 0.000000
vt 0.625000 0.250000
vt 0.375000 0.250000
vt 0.125000 0.500000
vt 0.375000 0.500000
vt 0.125000 0.750000
vn 0.0000 1.0000 0.0000
vn 0.0000 0.0000 1.0000
vn -1.0000 0.0000 0.0000
vn 0.0000 -1.0000 0.0000
vn 1.0000 0.0000 0.0000
vn 0.0000 0.0000 -1.0000
usemtl Fundo_da_casa
s off
f 1/1/1 5/2/1 7/3/1 3/4/1
f 4/5/2 3/4/2 7/6/2 8/7/2
f 8/8/3 7/9/3 5/10/3 6/11/3
f 6/12/4 2/13/4 4/5/4 8/14/4
f 2/13/5 1/1/5 3/4/5 4/5/5
f 6/11/6 5/10/6 1/1/6 2/13/6
o Porta_Cube.005
v -3.000000 0.500006 -10.020000
v -3.000000 9.840014 -10.020000
v 3.000000 0.500006 -10.020000
v 3.000000 9.840014 -10.020000
v -3.000000 0.500006 -9.980000
v -3.000000 9.840014 -9.980000
v 3.000000 0.500006 -9.980000
v 3.000000 9.840014 -9.980000
v -1.000000 0.000000 1.000000
v 1.000000 0.000000 1.000000
v -1.000000 0.000000 -1.000000
v 1.000000 0.000000 -1.000000
v -1.000000 0.000000 1.000000
v 1.000000 0.000000 1.000000
v -1.000000 0.000000 -1.000000
v 1.000000 0.000000 -1.000000
vt 0.993767 0.000988
vt 0.986274 1.001482
vt -0.004389 0.998741
vt 0.003103 -0.001753
vt 0.375000 0.250000
vt 0.625000 0.250000
vt 0.625000 0.500000
vt 0.375000 0.500000
vt 0.982779 0.013849
vt 0.984051 0.994726
vt 0.011910 0.983872
vt 0.010638 0.002995
vt 0.375000 0.750000
vt 0.625000 0.750000
vt 0.625000 1.000000
vt 0.375000 1.000000
vt 0.125000 0.500000
vt 0.125000 0.750000
vt 0.875000 0.500000
vt 0.875000 0.750000
vt 0.000000 0.000000
vt 1.000000 0.000000
vt 1.000000 1.000000
vt 0.000000 1.000000
vt 0.000000 0.000000
vt 1.000000 0.000000
vt 1.000000 1.000000
vt 0.000000 1.000000
vn -0.0000 0.0000 -1.0000
vn 1.0000 0.0000 0.0000
vn 0.0000 0.0000 1.0000
vn -1.0000 0.0000 0.0000
vn 0.0000 -1.0000 0.0000
vn 0.0000 1.0000 0.0000
usemtl Material.001
s off
f 9/15/7 10/16/7 12/17/7 11/18/7
f 11/19/8 12/20/8 16/21/8 15/22/8
f 15/23/9 16/24/9 14/25/9 13/26/9
f 13/27/10 14/28/10 10/29/10 9/30/10
f 11/31/11 15/22/11 13/27/11 9/32/11
f 16/21/12 12/33/12 10/34/12 14/28/12
f 17/35/12 18/36/12 20/37/12 19/38/12
f 21/39/12 22/40/12 24/41/12 23/42/12
o Parede_Direita_Plane
v -10.000000 10.500000 10.000000
v -10.000000 0.500000 10.000000
v -10.000000 10.500000 -10.000000
v -10.000000 0.500000 -10.000000
vt 0.000000 0.000000
vt 1.000000 0.000000
vt 1.000000 1.000000
vt 0.000000 1.000000
vn 1.0000 0.0000 0.0000
usemtl Parede_Exterior
s off
f 25/43/13 26/44/13 28/45/13 27/46/13
o Parede_Frente_Plane.001
v 10.000000 10.500000 -10.000000
v 10.000000 0.500000 -10.000000
v -10.000000 10.500000 -10.000000
v -10.000000 0.500000 -10.000000
vt 0.000000 0.000000
vt 1.000000 0.000000
vt 1.000000 1.000000
vt 0.000000 1.000000
vn 0.0000 0.0000 -1.0000
usemtl Parede_Exterior
s off
f 29/47/14 30/48/14 32/49/14 31/50/14
o Parede_Fundo_Plane.002
v 10.000000 10.500000 10.000000
v 10.000000 0.500000 10.000000
v -10.000000 10.500000 10.000000
v -10.000000 0.500000 10.000000
vt 0.000000 0.000000
vt 1.000000 0.000000
vt 1.000000 1.000000
vt 0.000000 1.000000
vn -0.0000 0.0000 -1.0000
usemtl Parede_Exterior
s off
f 33/51/15 34/52/15 36/53/15 35/54/15
o Parede_Esquerda_Plane.003
v 10.000000 10.500000 10.000000
v 10.000000 0.500000 10.000000
v 10.000000 10.500000 -10.000000
v 10.000000 0.500000 -10.000000
vt 0.000000 0.000000
vt 1.000000 0.000000
vt 1.000000 1.000000
vt 0.000000 1.000000
vn 1.0000 0.0000 0.0000
usemtl Parede_Exterior
s off
f 37/55/16 38/56/16 40/57/16 39/58/16
o piso_Plane.004
v -10.000000 0.550000 10.000000
v 10.000000 0.550000 10.000000
v -10.000000 0.550000 -10.000000
v 10.000000 0.550000 -10.000000
vt 0.000000 0.000000
vt 1.000000 0.000000
vt 1.000000 1.000000
vt 0.000000 1.000000
vn 0.0000 1.0000 0.0000
usemtl Parede_Exterior.001
s off
f 41/59/17 42/60/17 44/61/17 43/62/17
